<?xml version="1.0" encoding="UTF-8"?>
<svg id="Layer_2" xmlns="http://www.w3.org/2000/svg" viewBox="0 0 187.12 185.67">
  <defs>
    <style>
      .cls-1 {
        fill: none;
        stroke: #0089a6;
        stroke-miterlimit: 10;
      }
    </style>
  </defs>
  <g id="Layer_1-2">
    <g>
      <polyline class="cls-1" points=".91 7.18 79.69 20.15 158.46 33.12 162.81 33.84 184.93 184.66"/>
      <polyline class="cls-1" points=".95 13.74 77.9 26.81 154.83 39.87 159.08 40.59 184.92 184.62"/>
      <polyline class="cls-1" points="1 20.3 76.11 33.46 151.21 46.62 155.35 47.34 184.9 184.58"/>
      <polyline class="cls-1" points="1.05 26.86 74.32 40.12 147.59 53.37 151.63 54.1 184.89 184.54"/>
      <polyline class="cls-1" points="1.1 33.42 72.53 46.77 143.96 60.12 147.9 60.85 184.88 184.5"/>
      <polyline class="cls-1" points="1.14 39.98 70.74 53.42 140.34 66.87 144.17 67.61 184.86 184.46"/>
      <polyline class="cls-1" points="1.19 46.54 68.95 60.08 136.71 73.61 140.45 74.36 184.85 184.42"/>
      <polyline class="cls-1" points="1.24 53.1 67.16 66.73 133.09 80.36 136.72 81.11 184.84 184.38"/>
      <polyline class="cls-1" points="1.28 59.66 65.38 73.39 129.46 87.11 132.99 87.87 184.82 184.34"/>
      <polyline class="cls-1" points="1.33 66.22 63.59 80.04 125.84 93.86 129.26 94.62 184.81 184.3"/>
      <polyline class="cls-1" points="1.38 72.78 61.8 86.7 122.22 100.61 125.54 101.37 184.8 184.26"/>
      <polyline class="cls-1" points="1.42 79.34 60.01 93.35 118.59 107.36 121.81 108.13 184.78 184.22"/>
      <polyline class="cls-1" points="1.47 85.9 58.22 100 114.97 114.11 118.08 114.88 184.77 184.18"/>
      <polyline class="cls-1" points="1.52 92.46 56.43 106.66 111.34 120.86 114.36 121.63 184.75 184.14"/>
      <polyline class="cls-1" points="1.57 99.02 54.64 113.31 107.72 127.6 110.63 128.39 184.74 184.1"/>
      <polyline class="cls-1" points="1.61 105.58 52.85 119.97 104.09 134.35 106.9 135.14 184.73 184.06"/>
      <polyline class="cls-1" points="1.66 112.14 51.07 126.62 100.47 141.1 103.17 141.89 184.71 184.02"/>
      <polyline class="cls-1" points="1.71 118.7 49.28 133.28 96.85 147.85 99.45 148.65 184.7 183.98"/>
      <polyline class="cls-1" points="1.75 125.26 47.49 139.93 93.22 154.6 184.69 183.94"/>
      <polyline class="cls-1" points="1.71 118.7 49.88 132.6 73.96 139.55 98.05 146.5 141.37 165.24 163.04 174.61 184.7 183.98 182.28 183.98"/>
      <polyline class="cls-1" points="1.66 112.14 52.27 125.27 77.57 131.83 102.88 138.39 143.8 161.21 164.25 172.61 184.71 184.02 179.87 184.02"/>
      <polyline class="cls-1" points="1.61 105.58 54.66 117.93 81.18 124.11 107.7 130.29 146.22 157.17 165.47 170.62 184.73 184.06 177.46 184.06"/>
      <polyline class="cls-1" points="1.57 99.02 57.05 110.6 84.79 116.39 112.53 122.18 148.64 153.14 166.69 168.62 184.74 184.1 175.05 184.1"/>
      <polyline class="cls-1" points="1.52 92.46 59.44 103.27 88.4 108.67 117.36 114.08 151.06 149.11 167.91 166.62 184.75 184.14 172.64 184.14"/>
      <polyline class="cls-1" points="1.47 85.9 61.83 95.94 92.01 100.96 122.19 105.98 153.48 145.08 169.12 164.63 184.77 184.18 170.24 184.18"/>
      <polyline class="cls-1" points="1.42 79.34 64.22 88.61 95.62 93.24 127.01 97.87 155.9 141.05 170.34 162.63 184.78 184.22 167.83 184.22"/>
      <polyline class="cls-1" points="1.38 72.78 66.61 81.27 99.23 85.52 131.84 89.77 158.32 137.01 171.56 160.64 184.8 184.26 165.42 184.26"/>
      <polyline class="cls-1" points="1.33 66.22 69 73.94 102.83 77.8 136.67 81.66 160.74 132.98 172.77 158.64 184.81 184.3 163.01 184.3"/>
      <polyline class="cls-1" points="1.28 59.66 71.39 66.61 106.44 70.08 141.5 73.56 163.16 128.95 173.99 156.65 184.82 184.34 160.6 184.34"/>
      <polyline class="cls-1" points="1.24 53.1 73.78 59.28 110.05 62.37 146.32 65.45 165.58 124.92 175.21 154.65 184.84 184.38 158.19 184.38"/>
      <polyline class="cls-1" points="1.19 46.54 76.17 51.95 113.66 54.65 151.15 57.35 168 120.89 176.42 152.65 184.85 184.42 155.78 184.42"/>
      <polyline class="cls-1" points="1.14 39.98 78.56 44.61 117.27 46.93 155.98 49.25 170.42 116.85 177.64 150.66 184.86 184.46 153.37 184.46"/>
      <polyline class="cls-1" points="1.1 33.42 80.95 37.28 120.88 39.21 160.81 41.14 172.84 112.82 178.86 148.66 184.88 184.5 150.97 184.5"/>
      <polyline class="cls-1" points="1.05 26.86 83.34 29.95 124.49 31.49 165.63 33.04 175.26 108.79 180.08 146.67 184.89 184.54 148.56 184.54"/>
      <polyline class="cls-1" points="1 20.3 85.73 22.62 128.1 23.78 170.46 24.93 177.68 104.76 181.29 144.67 184.9 184.58 146.15 184.58"/>
      <polyline class="cls-1" points=".95 13.74 88.12 15.29 131.7 16.06 175.29 16.83 180.1 100.73 182.51 142.68 184.92 184.62 143.74 184.62"/>
      <polyline class="cls-1" points=".91 7.18 90.51 7.95 135.31 8.34 180.12 8.73 182.52 96.7 183.73 140.68 184.93 184.66 141.33 184.66"/>
      <polygon class="cls-1" points="184.94 184.71 138.92 184.71 92.9 184.71 .86 184.71 .86 138.68 .86 92.66 .86 .62 92.9 .62 138.92 .62 184.94 .62 184.94 92.66 184.94 138.68 184.94 184.71"/>
      <polyline class="cls-1" points=".84 .6 1.61 90.21 2 135.01 2.38 179.81 90.35 182.22 134.34 183.42 178.32 184.62 178.32 141.03"/>
      <polyline class="cls-1" points=".82 .58 2.36 87.75 3.14 131.33 3.91 174.92 87.8 179.73 129.75 182.14 171.7 184.54 171.7 143.37"/>
      <polyline class="cls-1" points=".8 .56 3.12 85.29 4.27 127.66 5.43 170.02 85.26 177.24 125.17 180.85 165.08 184.46 165.08 145.71"/>
      <polyline class="cls-1" points=".78 .54 3.87 82.83 5.41 123.98 6.96 165.13 82.71 174.75 120.58 179.57 158.46 184.38 158.46 148.05"/>
      <polyline class="cls-1" points=".76 .52 4.62 80.38 6.55 120.3 8.48 160.23 80.16 172.27 116 178.28 151.84 184.3 151.84 150.39"/>
      <polyline class="cls-1" points=".74 .5 5.37 77.92 7.69 116.63 10 155.34 77.61 169.78 111.42 177 145.22 184.22 145.22 152.73"/>
      <polyline class="cls-1" points=".72 .48 6.12 75.46 8.82 112.95 11.53 150.44 75.06 167.29 106.83 175.72 138.6 184.14 138.6 155.07"/>
      <polyline class="cls-1" points=".7 .46 6.87 73 9.96 109.28 13.05 145.55 72.51 164.8 102.25 174.43 131.98 184.06 131.98 157.42"/>
      <polyline class="cls-1" points=".68 .44 7.63 70.55 11.1 105.6 14.58 140.65 69.97 162.32 97.66 173.15 125.36 183.98 125.36 159.76"/>
      <polyline class="cls-1" points=".66 .42 8.38 68.09 12.24 101.92 16.1 135.76 67.42 159.83 93.08 171.86 118.74 183.9 118.74 162.1"/>
      <polyline class="cls-1" points=".64 .4 9.13 65.63 13.38 98.25 17.62 130.86 64.87 157.34 88.49 170.58 112.12 183.82 112.12 164.44"/>
      <polyline class="cls-1" points=".62 .38 9.88 63.17 14.51 94.57 19.15 125.97 62.32 154.85 83.91 169.29 105.5 183.74 105.5 166.78"/>
      <polyline class="cls-1" points=".6 .36 10.63 60.72 15.65 90.89 20.67 121.07 59.77 152.36 79.32 168.01 98.88 183.66 98.88 169.12"/>
      <polyline class="cls-1" points=".58 .34 11.39 58.26 16.79 87.22 22.19 116.18 57.23 149.88 74.74 166.73 92.26 183.58 92.26 171.46"/>
      <polyline class="cls-1" points=".56 .32 12.14 55.8 17.93 83.54 23.72 111.28 54.68 147.39 70.16 165.44 85.63 183.49 85.63 173.81"/>
      <polyline class="cls-1" points=".54 .3 12.89 53.34 19.07 79.87 25.24 106.39 52.13 144.9 65.57 164.16 79.01 183.41 79.01 176.15"/>
      <polyline class="cls-1" points=".52 .28 13.64 50.89 20.2 76.19 26.77 101.49 49.58 142.41 60.99 162.87 72.39 183.33 72.39 178.49"/>
      <polyline class="cls-1" points=".5 .26 14.39 48.43 21.34 72.51 28.29 96.6 47.03 139.93 56.4 161.59 65.77 183.25 65.77 180.83"/>
      <polyline class="cls-1" points=".48 .24 15.15 45.97 29.81 91.7 44.48 137.44 59.15 183.17"/>
      <polyline class="cls-1" points=".5 .26 37.78 90.69 65.77 183.25"/>
      <polyline class="cls-1" points=".52 .28 44.93 87.16 72.39 183.33"/>
      <polyline class="cls-1" points=".54 .3 52.08 83.63 79.01 183.41"/>
      <polyline class="cls-1" points=".56 .32 59.24 80.09 85.63 183.49"/>
      <polyline class="cls-1" points=".58 .34 66.39 76.56 92.26 183.58"/>
      <polyline class="cls-1" points=".6 .36 73.54 73.02 98.88 183.66"/>
      <polyline class="cls-1" points=".62 .38 80.7 69.49 105.5 183.74"/>
      <polyline class="cls-1" points=".64 .4 87.85 65.96 112.12 183.82"/>
      <polyline class="cls-1" points=".66 .42 95 62.42 118.74 183.9"/>
      <polyline class="cls-1" points=".68 .44 102.16 58.89 125.36 183.98"/>
      <polyline class="cls-1" points=".7 .46 109.31 55.35 131.98 184.06"/>
      <polyline class="cls-1" points=".72 .48 116.46 51.82 138.6 184.14"/>
      <polyline class="cls-1" points=".74 .5 123.62 48.29 145.22 184.22"/>
      <polyline class="cls-1" points=".76 .52 130.77 44.75 151.84 184.3"/>
      <polyline class="cls-1" points=".78 .54 137.92 41.22 158.46 184.38"/>
      <polyline class="cls-1" points=".8 .56 145.08 37.69 165.08 184.46"/>
      <polyline class="cls-1" points=".82 .58 152.23 34.15 171.7 184.54"/>
      <polyline class="cls-1" points=".84 .6 159.38 30.62 178.32 184.62"/>
      <polyline class="cls-1" points=".86 .62 166.53 27.08 184.94 184.71"/>
    </g>
  </g>
</svg>